#!OML:ASF F:\VICON\USERDATA\INSTALL\rory3\rory3.ASF
:FULLY-SPECIFIED
:DEGREES
77
root 0.23097695718983907 17.5367785051572 25.469646502999055 -2.1755878507966604 -0.508180027170926 1.2586981091598286
lfemur 10.612742646390833 -2.930212406198292 -26.426687672460442
ltibia 15.469736934190106
lfoot -8.279821007589495 -4.435408920762978
ltoes -4.646272192606181
rfemur -24.122429763304105 5.927036795604049 19.412429140651536
rtibia 20.594788324459902
rfoot -5.928660605836708 -9.456226435638888
rtoes 0.8029821899453462
lowerback 10.436966172200792 -0.8463956909209787 -2.220138739033333
upperback 0.4116683176297192 -1.498522054750191 1.5253014683419905
thorax -4.907522559133955 -0.7253746103484777 3.6185298966819763
lowerneck -15.164881457164487 -2.6999513404275115 -2.9798119401019303
upperneck 22.293819997099412 -3.2585015803091557 0.610686370542118
head 9.746102255908752 -1.7156051926482383 0.09309117575882497
lclavicle -1.3905274113979923e-15 -1.857866340877765e-15
lhumerus -29.570033750901036 0.9271931064693697 80.67043232174451
lradius 28.431679842332862
lwrist 6.080091040977207
lhand -27.230019016716607 24.574076671035353
lfingers 7.125019999999999
lthumb -0.6735004796571742 54.33075944301181
rclavicle -1.3882905364672413e-15 -1.8445220715649717e-15
rhumerus -34.587298711528454 -26.068283607342728 -72.65657810236058
rradius 24.277746173013803
rwrist 7.536020195160684
rhand -18.061940195031315 22.63246369873327
rfingers 7.125019999999999
rthumb 8.186481427070722 -7.219535584080035
78
root 0.14285986441458587 17.534011502133655 26.137812608156935 -2.5010267197268163 -0.5994916326691673 0.4461725598657975
lfemur 11.720156195305217 -3.745808212632876 -25.752728293634963
ltibia 18.203221726853926
lfoot -7.401674010131569 -4.634001530702962
ltoes -4.645065204544931
rfemur -24.028537806097297 5.389336734608096 20.304713197978405
rtibia 24.363201345935586
rfoot -5.892000607074776 -8.47036701375766
rtoes 1.3974187684455455
lowerback 10.438978891455491 -0.8757824408532981 -1.8757496261278521
upperback 0.3915758514946753 -1.514850652497317 1.6871722021395132
thorax -4.8558521280673785 -0.8162396366376974 3.8057063008748653
lowerneck -15.153841045494534 -2.707643772129089 -2.9889518191112403
upperneck 22.320281781619823 -3.2367287178503403 0.49152056924483245
head 9.751779471840926 -1.718170414400064 0.09976420383588697
lclavicle -1.3905273470899921e-15 -1.857866292674726e-15
lhumerus -30.184514362823545 0.9620767503326961 80.8627252639654
lradius 29.331406091094152
lwrist 6.050057111752183
lhand -27.242424985159687 24.662125600445982
lfingers 7.125019999999999
lthumb -0.6901819618415493 54.407365884881465
rclavicle -1.3882905548201395e-15 -1.8445220884750915e-15
rhumerus -34.86222433437063 -26.72775829659324 -71.51957754763757
rradius 23.68155435867994
rwrist 9.07943609656153
rhand -18.015140959404516 22.621423229957653
rfingers 7.125019999999999
rthumb 8.205303050128716 -7.214390553804455
79
root 0.058719554023773546 17.574110748772704 26.85083474796639 -2.8744284102626065 -0.6789386276181063 -0.6488956488290851
lfemur 11.571189250294543 -4.757168960311631 -24.92646877687775
ltibia 23.058200883590402
lfoot -7.157998865944941 -4.895920700197953
ltoes -4.566057401399206
rfemur -23.81807519253647 4.9354561450181755 21.52659009589379
rtibia 27.858296982409236
rfoot -5.5414330014081905 -7.395574287570532
rtoes 2.655844175798772
lowerback 10.456374230339188 -0.8796468972674598 -1.3912399677214151
upperback 0.36748737642944007 -1.4570839436517482 1.873247009071512
thorax -4.847133635869861 -0.8689531803906754 3.8991811766611173
lowerneck -15.144454556720438 -2.721062305912968 -3.0055222393545042
upperneck 22.38994016999325 -3.2094941658847715 0.37561807420583027
head 9.759094731662191 -1.7236612628642618 0.10648345394274139
lclavicle -1.3905274396961286e-15 -1.8578663893767145e-15
lhumerus -31.070205290446836 0.7205828597847783 81.00509528427463
lradius 29.976739134574807
lwrist 5.906351686749561
lhand -27.24294081042015 24.750877929935957
lfingers 7.125019999999999
lthumb -0.7008771012654937 54.483794869812556
rclavicle -1.3882905561287988e-15 -1.844522089488307e-15
rhumerus -35.2398325733581 -27.455763879299866 -70.6170517990032
rradius 22.860644671969386
rwrist 10.997848360229632
rhand -17.973187135062407 22.60457744537084
rfingers 7.125019999999999
rthumb 8.221006208509417 -7.220132640170471
80
root -0.021965233596154765 17.63893490718998 27.54405202706031 -3.235040444002562 -0.7149614704646331 -1.8744186586940446
lfemur 9.801797523808164 -5.03474072520523 -23.536765628339808
ltibia 30.682384073271415
lfoot -7.458443855617937 -4.881106108595416
ltoes -4.494965036701143
rfemur -23.117363733076047 4.885468336044278 22.755053431570335
rtibia 30.50291162665891
rfoot -5.253022622216898 -6.424991573059568
rtoes 3.6259514825693095
lowerback 10.486372911853337 -0.8424680252994554 -0.7918897722887579
upperback 0.34261594218747365 -1.3316436723756326 2.058333114803759
thorax -4.8774937459616226 -0.882866697606167 3.8939389486707228
lowerneck -15.130028001569368 -2.7393309125429814 -3.0244646442099024
upperneck 22.483527251295534 -3.188569488947094 0.2831417017377241
head 9.762124273017099 -1.7306349945310096 0.11156929430307994
lclavicle -1.3905274425887127e-15 -1.8578663839902373e-15
lhumerus -31.931655211235427 0.4823368883024317 81.08156862573577
lradius 30.352018732308807
lwrist 5.625009222242032
lhand -27.238347451864392 24.829484871172745
lfingers 7.125019999999999
lthumb -0.7064958966509978 54.5565485688301
rclavicle -1.3882905650630341e-15 -1.844522098011256e-15
rhumerus -35.49281145563275 -27.832256899074306 -70.2066938098548
rradius 21.85512793796159
rwrist 12.940097686017879
rhand -17.937640788102247 22.585381948566155
rfingers 7.125019999999999
rthumb 8.233608856824697 -7.231723153583341
81
root -0.09571937637664163 17.71227774790691 28.124023595833044 -3.5337669230270246 -0.7118321553765556 -3.023929566431774
lfemur 6.490902317993614 -4.512553811048317 -21.786662017905915
ltibia 39.70546290677265
lfoot -6.354803812018611 -4.869005336186878
ltoes -4.532472743349758
rfemur -22.49450723995719 4.964642430554642 23.788065670798726
rtibia 32.027970954112675
rfoot -5.308821983020255 -6.004348755559473
rtoes 4.021609370107867
lowerback 10.523291005577086 -0.7522253415878732 -0.12735892707696217
upperback 0.3359608731460981 -1.1191522682103232 2.230201178108995
thorax -4.940654003406634 -0.8587425669516107 3.789361068561292
lowerneck -15.12235741308862 -2.7617300642412452 -3.0442848143534205
upperneck 22.58556637380248 -3.1822629395157604 0.24148828977692316
head 9.748851889511547 -1.740630403098615 0.11425463026032828
lclavicle -1.390527420593571e-15 -1.857866357547569e-15
lhumerus -32.54476812883824 0.5493287541230929 81.08438694636749
lradius 30.46172048247395
lwrist 5.262075807058177
lhand -27.23479332424302 24.890832168334732
lfingers 7.125019999999999
lthumb -0.7080233845097832 54.62529456838344
rclavicle -1.388290568281682e-15 -1.8445221012111605e-15
rhumerus -35.45054094165932 -27.657269517448505 -70.32044264262122
rradius 20.771607060495988
rwrist 14.355367737185015
rhand -17.907728629991194 22.570299804086492
rfingers 7.125019999999999
rthumb 8.243641960083822 -7.24225693334076
82
root -0.15593675451678501 17.781987162787775 28.523989810297472 -3.7336747876091763 -0.7274112146386291 -3.9952038146169997
lfemur 2.0673493644926477 -3.814708408592116 -19.80272042995231
ltibia 49.19671661234308
lfoot -5.561536086504029 -4.55840338056366
ltoes -4.521907556318312
rfemur -20.955741448393876 5.279938264162843 25.07527049052844
rtibia 32.40205993537458
rfoot -5.6164918086097675 -5.968997567568264
rtoes 4.260932780288872
lowerback 10.550228588076841 -0.6179920097562999 0.5108127557874578
upperback 0.3549954280474392 -0.813895317145602 2.3639306920552086
thorax -5.027584826566624 -0.7991550754556804 3.5881426490716892
lowerneck -15.10114106704059 -2.779271366206544 -3.0517835127051116
upperneck 22.666389819904385 -3.2020614686273148 0.2536307236493644
head 9.719683246355219 -1.7532238739595043 0.11100599615016288
lclavicle -1.3905274247837565e-15 -1.8578663629809332e-15
lhumerus -32.97500535668071 0.7795329964500697 81.01715377451319
lradius 30.331009432008827
lwrist 4.842117451359343
lhand -27.230707654555776 24.93253898573972
lfingers 7.125019999999999
lthumb -0.7087080449217797 54.681956066993926
rclavicle -1.3882905652387689e-15 -1.8445220984228445e-15
rhumerus -34.9659530228114 -26.869180403933825 -70.9690211681244
rradius 19.769069353711576
rwrist 15.04608724576109
rhand -17.882221395544452 22.568065892024737
rfingers 7.125019999999999
rthumb 8.251215937569622 -7.248234528066507
83
root -0.1982941639130542 17.835901590914876 28.70609646237144 -3.8257757139018818 -0.8681624533076026 -4.7158400379218595
lfemur -2.8501774628798593 -2.9192866221595994 -17.988357368131584
ltibia 57.99872141058404
lfoot -5.649309964454937 -4.76635582845457
ltoes -4.448177452881714
rfemur -19.446944876849546 5.507607839138449 26.213327340842334
rtibia 32.151416498547704
rfoot -6.096208037410879 -6.124668273647921
rtoes 4.509979621896838
lowerback 10.565509545538927 -0.4433154963232839 1.0915603424807363
upperback 0.38732183244488855 -0.45858838234431376 2.4321057266501946
thorax -5.125671823946209 -0.7040644409951164 3.3048712041202295
lowerneck -15.09843080831289 -2.7982790199277137 -3.06398971529223
upperneck 22.718097515133763 -3.2438745402524365 0.3072527489732733
head 9.686604917692389 -1.7636802051697131 0.10551428407097796
lclavicle -1.3905274215501085e-15 -1.8578663615002433e-15
lhumerus -33.3282654512004 1.0674392797583785 80.89535867817236
lradius 30.002069776435896
lwrist 4.502200410070025
lhand -27.22484418398735 24.954324622056657
lfingers 7.125019999999999
lthumb -0.7092600462853964 54.72251249933421
rclavicle -1.3882905646150481e-15 -1.8445220978166636e-15
rhumerus -34.25603685031598 -26.035841664007556 -71.97581330848408
rradius 18.999469811891316
rwrist 15.251047395875933
rhand -17.864155682539156 22.57423866948475
rfingers 7.125019999999999
rthumb 8.262574605086646 -7.240530095620555
